<svg width="20" height="35" viewBox="0 0 20 35" fill="none" xmlns="http://www.w3.org/2000/svg">
<path d="M0.758483 0C0.319361 0 0 0.349563 0 0.830212V34.1698C0 34.6504 0.319361 35 0.758483 35H19.2415C19.6806 35 20 34.6504 20 34.1698V0.830212C20 0.349563 19.6806 0 19.2415 0L0.758483 0ZM3.99202 4.36954H15.9681V26.2172H3.99202V4.36954ZM9.98004 28.402C11.0978 28.402 11.976 29.3633 11.976 30.5868C11.976 31.8102 11.0978 32.7715 9.98004 32.7715C8.86228 32.7715 7.98403 31.8102 7.98403 30.5868C7.98403 29.3633 8.86228 28.402 9.98004 28.402Z" fill="white"/>
</svg>
